<?xml version="1.0" encoding="UTF-8" standalone="no"?>
<!-- Generator: Adobe Illustrator 15.0.2, SVG Export Plug-In . SVG Version: 6.00 Build 0)  -->

<svg
   xmlns:dc="http://purl.org/dc/elements/1.1/"
   xmlns:cc="http://creativecommons.org/ns#"
   xmlns:rdf="http://www.w3.org/1999/02/22-rdf-syntax-ns#"
   xmlns:svg="http://www.w3.org/2000/svg"
   xmlns="http://www.w3.org/2000/svg"
   xmlns:sodipodi="http://sodipodi.sourceforge.net/DTD/sodipodi-0.dtd"
   xmlns:inkscape="http://www.inkscape.org/namespaces/inkscape"
   version="1.1"
   id="Layer_1"
   x="0px"
   y="0px"
   width="96"
   height="96"
   viewBox="0 0 96 96.000001"
   enable-background="new 0 0 512 512.021"
   xml:space="preserve"
   inkscape:version="0.48.4 r9939"
   sodipodi:docname="sun.svg"><metadata
     id="metadata9"><rdf:RDF><cc:Work
         rdf:about=""><dc:format>image/svg+xml</dc:format><dc:type
           rdf:resource="http://purl.org/dc/dcmitype/StillImage" /></cc:Work></rdf:RDF></metadata><defs
     id="defs7" /><sodipodi:namedview
     pagecolor="#000000"
     bordercolor="#666666"
     borderopacity="1"
     objecttolerance="10"
     gridtolerance="10"
     guidetolerance="10"
     inkscape:pageopacity="0"
     inkscape:pageshadow="2"
     inkscape:window-width="640"
     inkscape:window-height="480"
     id="namedview5"
     showgrid="false"
     inkscape:zoom="1.8436744"
     inkscape:cx="17.346146"
     inkscape:cy="60.748254"
     inkscape:window-x="0"
     inkscape:window-y="0"
     inkscape:window-maximized="0"
     inkscape:current-layer="Layer_1" /><path
     d="m 86.780061,53.132354 -14.366067,3.299243 c 1.081395,-3.181311 1.53733,-6.596681 1.276194,-10.063347 l 13.089873,6.764104 z M 72.061851,78.939199 59.574877,71.113404 c 3.123247,-1.540338 5.828167,-3.673196 8.014425,-6.217915 l 4.472549,14.04371 z m -28.653314,7.840085 -3.29834,-14.365917 c 3.18116,1.078237 6.596682,1.535525 10.063949,1.27469 L 43.408537,86.779284 z M 17.602295,72.05957 25.427487,59.571844 c 1.540339,3.123097 3.673949,5.828016 6.218667,8.014425 L 17.602295,72.05957 z M 9.7631123,43.405354 24.12918,40.107013 c -1.07914,3.181161 -1.537331,6.596682 -1.274841,10.063949 L 9.7631123,43.405354 z M 24.481172,17.59911 36.96965,25.424304 c -3.123098,1.54109 -5.828017,3.674098 -8.013523,6.218817 L 24.481172,17.59911 z M 53.135387,9.7591758 56.434631,24.125996 C 53.25347,23.047007 49.837949,22.588816 46.371434,22.851305 L 53.135387,9.7591758 z M 78.943135,24.478138 71.116589,36.966617 c -1.54034,-3.123248 -3.673348,-5.828168 -6.218067,-8.014426 l 14.044613,-4.474053 z m -30.670796,3.404389 c 11.260118,0 20.385875,9.127262 20.385875,20.386627 0,11.26012 -9.125757,20.385725 -20.385875,20.385725 -11.259367,0 -20.386627,-9.125605 -20.386627,-20.385725 0,-11.259365 9.12726,-20.386627 20.386627,-20.386627 z"
     id="path3"
     inkscape:connector-curvature="0"
     style="fill:#ffffff" /></svg>